<svg width="72" height="72" viewBox="0 0 72 72" fill="none" xmlns="http://www.w3.org/2000/svg">
<rect width="72" height="72" rx="36" fill="white"/>
<path fill-rule="evenodd" clip-rule="evenodd" d="M42.8684 20.5309C43.3133 18.4982 46.2091 18.4861 46.6735 20.5163L46.693 20.6111L46.7367 20.8008C47.2716 23.0717 49.1098 24.8053 51.4099 25.2064C53.53 25.576 53.53 28.6201 51.4099 28.9897C50.2788 29.1865 49.2311 29.7132 48.3984 30.5035C47.5657 31.2939 46.9851 32.3126 46.7294 33.4318L46.6711 33.6798C46.2091 35.71 43.3158 35.6979 42.8684 33.6652L42.8222 33.4513C42.5768 32.3276 42.002 31.3026 41.1714 30.5071C40.3408 29.7116 39.292 29.1816 38.1588 28.9848C36.0435 28.6177 36.0435 25.5784 38.1588 25.2113C39.2879 25.0154 40.3334 24.4886 41.1627 23.6978C41.9921 22.9069 42.5679 21.8877 42.8173 20.7692L42.8514 20.6087L42.8684 20.5309ZM44.636 37.8375C43.4775 37.815 42.3702 37.3556 41.536 36.5513C41.3527 36.6722 41.1928 36.8254 41.0643 37.0035C39.9702 38.4527 38.6888 39.9334 37.2397 41.38C36.1407 42.479 35.0272 43.4783 33.9282 44.3707C32.8292 43.4783 31.7156 42.479 30.6166 41.38C29.5636 40.3291 28.5654 39.2246 27.626 38.0709C28.5183 36.9695 29.5201 35.8584 30.6166 34.7594C31.9858 33.3854 33.4481 32.1075 34.9931 30.9348C35.1545 30.8192 35.2957 30.6779 35.4113 30.5166C34.9491 30.0952 34.5788 29.5829 34.3236 29.0118C34.0684 28.4408 33.9338 27.8232 33.9282 27.1978C31.543 25.5274 29.1845 24.2898 27.079 23.6455C24.7983 22.9477 22.1238 22.7605 20.3708 24.5111C19.2353 25.649 18.9265 27.1953 19.014 28.6663C19.1016 30.1397 19.5951 31.759 20.3416 33.4027C21.103 35.0381 22.0121 36.6007 23.0574 38.0709C22.0123 39.5396 21.1033 41.1006 20.3416 42.7343C19.5951 44.3779 19.1016 45.9973 19.014 47.4707C18.9265 48.9417 19.2329 50.488 20.3708 51.6259C21.5086 52.7614 23.055 53.0702 24.526 52.9826C25.997 52.8927 27.6187 52.4015 29.2623 51.6551C30.7455 50.9816 32.3235 50.0625 33.9306 48.9392C35.5353 50.0625 37.1109 50.9816 38.5964 51.6551C40.2376 52.4015 41.8594 52.8951 43.3328 52.9826C44.8038 53.0702 46.3477 52.7614 47.4856 51.6235C49.2386 49.8729 49.0514 47.1984 48.3536 44.9177C47.6874 42.7441 46.3915 40.3005 44.636 37.8375ZM26.0116 27.1321C27.4121 27.56 29.0824 28.3721 30.8914 29.5489C28.9164 31.2246 27.0818 33.0591 25.4062 35.0341C24.7477 34.0314 24.1642 32.9814 23.6604 31.8928C23.021 30.4826 22.7073 29.3155 22.6538 28.4475C22.6028 27.5746 22.8167 27.2245 22.9505 27.0908C23.1693 26.8719 23.9765 26.5121 26.0116 27.1321ZM23.6604 44.2467C24.1078 43.2619 24.6938 42.2043 25.4062 41.1053C27.0826 43.0804 28.918 44.9149 30.8938 46.5905C29.892 47.2497 28.8428 47.834 27.7549 48.3387C26.3447 48.9781 25.1776 49.2918 24.3096 49.3453C23.4343 49.3963 23.0866 49.1824 22.9529 49.0486C22.8192 48.9149 22.6052 48.5624 22.6563 47.6919C22.7097 46.8239 23.021 45.6569 23.6629 44.2467H23.6604ZM40.1039 48.3387C39.0164 47.8347 37.968 47.2503 36.9674 46.5905C38.9407 44.9146 40.7736 43.0801 42.4478 41.1053C43.6221 42.9167 44.4342 44.587 44.8621 45.9875C45.4846 48.0202 45.1247 48.8298 44.9059 49.0486C44.7697 49.1824 44.4196 49.3963 43.5492 49.3428C42.6787 49.2942 41.5141 48.9781 40.1039 48.3387ZM31.4968 38.0709C31.4968 37.4261 31.753 36.8076 32.2089 36.3517C32.6649 35.8957 33.2833 35.6395 33.9282 35.6395C34.573 35.6395 35.1915 35.8957 35.6474 36.3517C36.1034 36.8076 36.3596 37.4261 36.3596 38.0709C36.3596 38.7158 36.1034 39.3342 35.6474 39.7902C35.1915 40.2461 34.573 40.5023 33.9282 40.5023C33.2833 40.5023 32.6649 40.2461 32.2089 39.7902C31.753 39.3342 31.4968 38.7158 31.4968 38.0709Z" fill="#7261ED"/>
</svg>
