<svg width="36" height="36" viewBox="0 0 36 36" fill="none" xmlns="http://www.w3.org/2000/svg">
<g id="Frame 1597882695">
<g id="Group">
<path id="Vector 921" d="M6.16633 9.49609C10.7758 12.5691 16.5188 21.6878 15.311 28.9072C14.478 33.886 6.91499 34.5162 6.05941 29.5412C4.99309 23.3409 11.0651 15.5124 18.6666 15.8714C22.8365 16.0683 26.4497 19.1277 28.1119 22.9572C29.2466 25.5717 29.6847 28.7087 28.0337 31.7105" stroke="#1F1F1F" stroke-width="3.89524" stroke-linecap="round"/>
<path id="Ellipse 8579" d="M25.048 6.72046C25.048 9.09539 23.1227 11.0207 20.7478 11.0207C18.3729 11.0207 16.4476 9.09539 16.4476 6.72046C16.4476 4.34553 18.3729 2.42027 20.7478 2.42027C23.1227 2.42027 25.048 4.34553 25.048 6.72046Z" stroke="#1F1F1F" stroke-width="3.89524"/>
</g>
</g>
</svg>
