<svg width="18" height="18" viewBox="0 0 18 18" fill="none" xmlns="http://www.w3.org/2000/svg">
<path fill-rule="evenodd" clip-rule="evenodd" d="M10.4522 1.22591C9.61406 0.518446 8.3879 0.518447 7.54971 1.22591L6.78637 1.87021C6.43011 2.1709 5.98926 2.35352 5.52473 2.3928L4.52937 2.47698C3.43643 2.56941 2.56941 3.43643 2.47698 4.52937L2.3928 5.52473C2.35352 5.98926 2.1709 6.43011 1.87021 6.78638L1.22591 7.54971C0.518446 8.3879 0.518447 9.61406 1.22591 10.4522L1.87021 11.2156C2.1709 11.5718 2.35352 12.0127 2.3928 12.4772L2.47698 13.4726C2.56941 14.5656 3.43643 15.4326 4.52937 15.525L5.52473 15.6091C5.98926 15.6485 6.43011 15.8311 6.78638 16.1318L7.54971 16.7761C8.3879 17.4835 9.61406 17.4835 10.4522 16.7761L11.2156 16.1318C11.5718 15.8311 12.0127 15.6485 12.4772 15.6091L13.4726 15.525C14.5656 15.4326 15.4326 14.5656 15.525 13.4726L15.6091 12.4772C15.6485 12.0127 15.8311 11.5718 16.1318 11.2156L16.7761 10.4522C17.4835 9.61406 17.4835 8.3879 16.7761 7.54971L16.1318 6.78637C15.8311 6.43011 15.6485 5.98926 15.6091 5.52473L15.525 4.52937C15.4326 3.43643 14.5656 2.56941 13.4726 2.47698L12.4772 2.3928C12.0127 2.35352 11.5718 2.1709 11.2156 1.87021L10.4522 1.22591ZM13.0924 7.46697C13.4878 7.07157 13.4878 6.43049 13.0924 6.03508C12.6971 5.63967 12.0559 5.63967 11.6605 6.03508L7.87646 9.81913L6.34241 8.28508C5.94701 7.88967 5.30592 7.88967 4.91052 8.28508C4.51511 8.68049 4.51511 9.32157 4.91052 9.71697L7.16052 11.9669C7.55592 12.3624 8.19701 12.3624 8.59241 11.9669L13.0924 7.46697Z" fill="#EFF87B"/>
</svg>
