<svg width="18" height="20" viewBox="0 0 18 20" fill="none" xmlns="http://www.w3.org/2000/svg">
<path fill-rule="evenodd" clip-rule="evenodd" d="M10.4522 3.22591C9.61406 2.51845 8.3879 2.51845 7.54971 3.22591L6.78637 3.87021C6.43011 4.1709 5.98926 4.35352 5.52473 4.3928L4.52937 4.47698C3.43643 4.56941 2.56941 5.43643 2.47698 6.52937L2.3928 7.52473C2.35352 7.98926 2.1709 8.43011 1.87021 8.78638L1.22591 9.54971C0.518446 10.3879 0.518447 11.6141 1.22591 12.4522L1.87021 13.2156C2.1709 13.5718 2.35352 14.0127 2.3928 14.4772L2.47698 15.4726C2.56941 16.5656 3.43643 17.4326 4.52937 17.525L5.52473 17.6091C5.98926 17.6485 6.43011 17.8311 6.78638 18.1318L7.54971 18.7761C8.3879 19.4835 9.61406 19.4835 10.4522 18.7761L11.2156 18.1318C11.5718 17.8311 12.0127 17.6485 12.4772 17.6091L13.4726 17.525C14.5656 17.4326 15.4326 16.5656 15.525 15.4726L15.6091 14.4772C15.6485 14.0127 15.8311 13.5718 16.1318 13.2156L16.7761 12.4522C17.4835 11.6141 17.4835 10.3879 16.7761 9.54971L16.1318 8.78637C15.8311 8.43011 15.6485 7.98926 15.6091 7.52473L15.525 6.52937C15.4326 5.43643 14.5656 4.56941 13.4726 4.47698L12.4772 4.3928C12.0127 4.35352 11.5718 4.1709 11.2156 3.87021L10.4522 3.22591ZM13.0924 9.46697C13.4878 9.07157 13.4878 8.43049 13.0924 8.03508C12.6971 7.63967 12.0559 7.63967 11.6605 8.03508L7.87646 11.8191L6.34241 10.2851C5.94701 9.88967 5.30592 9.88967 4.91052 10.2851C4.51511 10.6805 4.51511 11.3216 4.91052 11.717L7.16052 13.9669C7.55592 14.3624 8.19701 14.3624 8.59241 13.9669L13.0924 9.46697Z" fill="#1F1F1F"/>
</svg>
