<svg width="72" height="72" viewBox="0 0 72 72" fill="none" xmlns="http://www.w3.org/2000/svg">
<rect width="72" height="72" rx="36" fill="white"/>
<path d="M29.3288 43.4975C28.7178 42.8865 29.0363 43.0587 27.5625 42.6643C26.8939 42.485 26.3061 42.1405 25.7745 41.7277L22.5845 49.5492C22.2758 50.3064 22.8524 51.129 23.6694 51.0981L27.3741 50.9568L29.9222 53.6483C30.4847 54.2417 31.4718 54.0568 31.7805 53.2996L35.4402 44.3264C34.678 44.7511 33.8322 45 32.9575 45C31.5864 45 30.2983 44.4664 29.3288 43.4975ZM49.4152 49.5492L46.2252 41.7277C45.6937 42.1412 45.1059 42.485 44.4372 42.6643C42.9557 43.0608 43.2806 42.8879 42.671 43.4975C41.7014 44.4664 40.4126 45 39.0415 45C38.1669 45 37.321 44.7504 36.5588 44.3264L40.2185 53.2996C40.5272 54.0568 41.5151 54.2417 42.0769 53.6483L44.6256 50.9568L48.3303 51.0981C49.1473 51.129 49.7239 50.3057 49.4152 49.5492ZM40.992 41.9063C42.0663 40.813 42.1894 40.9072 43.7193 40.4903C44.6959 40.2238 45.4595 39.4469 45.7211 38.4527C46.247 36.4558 46.1106 36.697 47.5457 35.2359C48.2607 34.5082 48.5399 33.4472 48.2783 32.453C47.7531 30.4576 47.7524 30.736 48.2783 28.7385C48.5399 27.7443 48.2607 26.6833 47.5457 25.9556C46.1106 24.4945 46.247 24.735 45.7211 22.7388C45.4595 21.7446 44.6959 20.9677 43.7193 20.7012C41.7591 20.1661 41.9953 20.3061 40.5588 18.8443C39.8438 18.1166 38.8011 17.8318 37.8244 18.0983C35.8649 18.6327 36.1384 18.6334 34.1753 18.0983C33.1987 17.8318 32.156 18.1159 31.4409 18.8443C30.0058 20.3054 30.2421 20.1661 28.2811 20.7012C27.3045 20.9677 26.5409 21.7446 26.2794 22.7388C25.7541 24.735 25.8898 24.4945 24.4548 25.9556C23.7397 26.6833 23.4599 27.7443 23.7221 28.7385C24.2474 30.7325 24.2481 30.4541 23.7221 32.4523C23.4606 33.4465 23.7397 34.5075 24.4548 35.2359C25.8898 36.697 25.7534 36.4558 26.2794 38.4527C26.5409 39.4469 27.3045 40.2238 28.2811 40.4903C29.8547 40.9192 29.9721 40.8517 31.0078 41.9063C31.938 42.8534 33.3871 43.0229 34.5051 42.3156C34.9521 42.0317 35.4707 41.881 36.0002 41.881C36.5297 41.881 37.0483 42.0317 37.4954 42.3156C38.6126 43.0229 40.0617 42.8534 40.992 41.9063ZM29.3667 30.3725C29.3667 26.6439 32.3367 23.6212 35.9999 23.6212C39.6631 23.6212 42.633 26.6439 42.633 30.3725C42.633 34.1011 39.6631 37.1238 35.9999 37.1238C32.3367 37.1238 29.3667 34.1011 29.3667 30.3725Z" fill="#7261ED"/>
</svg>
