<svg width="86" height="86" viewBox="0 0 86 86" fill="none" xmlns="http://www.w3.org/2000/svg">
<path d="M15.4454 22.3828C27.7528 30.5877 43.393 56.5685 36.1903 74.6005C32.8863 82.8723 20.7792 84.0458 16.8273 76.0632C8.70575 59.6581 27.3579 33.7144 49.8537 38.3597C57.0677 39.8493 63.1307 44.9296 66.7933 51.3208C70.7641 58.2499 73.2831 67.4845 68.4653 76.2442" stroke="#375B48" stroke-width="6.87324" stroke-linecap="round"/>
<path d="M62.501 15.6485C62.501 22.1168 57.2574 27.3604 50.7891 27.3604C44.3208 27.3604 39.0772 22.1168 39.0772 15.6485C39.0772 9.18021 44.3208 3.93662 50.7891 3.93662C57.2574 3.93662 62.501 9.18021 62.501 15.6485Z" stroke="#375B48" stroke-width="6.87324"/>
</svg>
