<svg width="72" height="72" viewBox="0 0 72 72" fill="none" xmlns="http://www.w3.org/2000/svg">
<rect width="72" height="72" rx="36" fill="white"/>
<path d="M26.1 21.5C27.2935 21.5 28.4381 21.9774 29.282 22.8272C30.1259 23.6769 30.6 24.8295 30.6 26.0312C30.6 27.233 30.1259 28.3856 29.282 29.2353C28.4381 30.0851 27.2935 30.5625 26.1 30.5625C24.9065 30.5625 23.7619 30.0851 22.918 29.2353C22.0741 28.3856 21.6 27.233 21.6 26.0312C21.6 24.8295 22.0741 23.6769 22.918 22.8272C23.7619 21.9774 24.9065 21.5 26.1 21.5ZM46.8 21.5C47.9935 21.5 49.1381 21.9774 49.982 22.8272C50.8259 23.6769 51.3 24.8295 51.3 26.0312C51.3 27.233 50.8259 28.3856 49.982 29.2353C49.1381 30.0851 47.9935 30.5625 46.8 30.5625C45.6065 30.5625 44.4619 30.0851 43.618 29.2353C42.7741 28.3856 42.3 27.233 42.3 26.0312C42.3 24.8295 42.7741 23.6769 43.618 22.8272C44.4619 21.9774 45.6065 21.5 46.8 21.5ZM18 38.4186C18 35.0824 20.6887 32.375 24.0019 32.375H26.4037C27.2981 32.375 28.1475 32.5732 28.9125 32.9244C28.8394 33.3322 28.8056 33.757 28.8056 34.1875C28.8056 36.3512 29.7506 38.2939 31.2412 39.625H19.1981C18.54 39.625 18 39.0813 18 38.4186ZM40.7981 39.625H40.7587C42.255 38.2939 43.1944 36.3512 43.1944 34.1875C43.1944 33.757 43.155 33.3379 43.0875 32.9244C43.8525 32.5676 44.7019 32.375 45.5963 32.375H47.9981C51.3112 32.375 54 35.0824 54 38.4186C54 39.0869 53.46 39.625 52.8019 39.625H40.7981ZM30.6 34.1875C30.6 32.7454 31.1689 31.3623 32.1816 30.3426C33.1943 29.3229 34.5678 28.75 36 28.75C37.4322 28.75 38.8057 29.3229 39.8184 30.3426C40.8311 31.3623 41.4 32.7454 41.4 34.1875C41.4 35.6296 40.8311 37.0127 39.8184 38.0324C38.8057 39.0521 37.4322 39.625 36 39.625C34.5678 39.625 33.1943 39.0521 32.1816 38.0324C31.1689 37.0127 30.6 35.6296 30.6 34.1875ZM25.2 48.9877C25.2 44.8189 28.5581 41.4375 32.6981 41.4375H39.3019C43.4419 41.4375 46.8 44.8189 46.8 48.9877C46.8 49.8203 46.1306 50.5 45.2981 50.5H26.7019C25.875 50.5 25.2 49.826 25.2 48.9877Z" fill="#7261ED"/>
</svg>
